<svg width="25" height="23" viewBox="0 0 25 23" fill="none" xmlns="http://www.w3.org/2000/svg">
<path d="M15.0312 0.6875C14.3599 0.6875 13.7161 0.954185 13.2414 1.42889C12.7667 1.90359 12.5 2.54742 12.5 3.21875V6.59375C12.5001 7.11714 12.6624 7.62763 12.9646 8.05495C13.2668 8.48228 13.694 8.80541 14.1875 8.97987V10.8125C14.1876 10.9728 14.2333 11.1298 14.3194 11.2651C14.4054 11.4004 14.5282 11.5083 14.6734 11.5763C14.8186 11.6443 14.9802 11.6695 15.1392 11.649C15.2982 11.6285 15.4481 11.5631 15.5712 11.4605L18.3725 9.125H21.7812C22.4526 9.125 23.0964 8.85832 23.5711 8.38361C24.0458 7.90891 24.3125 7.26508 24.3125 6.59375V3.21875C24.3125 2.54742 24.0458 1.90359 23.5711 1.42889C23.0964 0.954185 22.4526 0.6875 21.7812 0.6875H15.0312ZM14.1875 3.21875C14.1875 2.99497 14.2764 2.78036 14.4346 2.62213C14.5929 2.46389 14.8075 2.375 15.0312 2.375H21.7812C22.005 2.375 22.2196 2.46389 22.3779 2.62213C22.5361 2.78036 22.625 2.99497 22.625 3.21875V6.59375C22.625 6.81753 22.5361 7.03214 22.3779 7.19037C22.2196 7.34861 22.005 7.4375 21.7812 7.4375H18.0688C17.8714 7.43759 17.6803 7.50686 17.5287 7.63325L15.875 9.01025V8.28125C15.875 8.05747 15.7861 7.84286 15.6279 7.68463C15.4696 7.52639 15.255 7.4375 15.0312 7.4375C14.8075 7.4375 14.5929 7.34861 14.4346 7.19037C14.2764 7.03214 14.1875 6.81753 14.1875 6.59375V3.21875ZM4.0625 9.125C4.0625 8.22989 4.41808 7.37145 5.05101 6.73851C5.68395 6.10558 6.54239 5.75 7.4375 5.75C8.33261 5.75 9.19105 6.10558 9.82399 6.73851C10.4569 7.37145 10.8125 8.22989 10.8125 9.125C10.8125 10.0201 10.4569 10.8786 9.82399 11.5115C9.19105 12.1444 8.33261 12.5 7.4375 12.5C6.54239 12.5 5.68395 12.1444 5.05101 11.5115C4.41808 10.8786 4.0625 10.0201 4.0625 9.125ZM7.4375 7.4375C6.98995 7.4375 6.56073 7.61529 6.24426 7.93176C5.92779 8.24823 5.75 8.67745 5.75 9.125C5.75 9.57255 5.92779 10.0018 6.24426 10.3182C6.56073 10.6347 6.98995 10.8125 7.4375 10.8125C7.88505 10.8125 8.31427 10.6347 8.63074 10.3182C8.94721 10.0018 9.125 9.57255 9.125 9.125C9.125 8.67745 8.94721 8.24823 8.63074 7.93176C8.31427 7.61529 7.88505 7.4375 7.4375 7.4375ZM3.21875 14.1875H11.6562C12.3276 14.1875 12.9714 14.4542 13.4461 14.9289C13.9208 15.4036 14.1875 16.0474 14.1875 16.7188C14.1875 18.602 13.4129 20.1106 12.1423 21.1316C10.8918 22.1356 9.21444 22.625 7.4375 22.625C5.66056 22.625 3.98319 22.1356 2.73275 21.1316C1.46375 20.1106 0.6875 18.602 0.6875 16.7188C0.6875 16.0474 0.954185 15.4036 1.42889 14.9289C1.90359 14.4542 2.54742 14.1875 3.21875 14.1875ZM11.6562 15.875H3.21875C2.99497 15.875 2.78036 15.9639 2.62213 16.1221C2.46389 16.2804 2.375 16.495 2.375 16.7188C2.375 18.0974 2.92344 19.1201 3.78913 19.8153C4.67675 20.5274 5.9525 20.9375 7.4375 20.9375C8.9225 20.9375 10.1982 20.5274 11.0859 19.8153C11.9516 19.1201 12.5 18.0974 12.5 16.7188C12.5 16.495 12.4111 16.2804 12.2529 16.1221C12.0946 15.9639 11.88 15.875 11.6562 15.875Z" fill="white"/>
</svg>
