<svg width="19" height="16" viewBox="0 0 19 16" fill="none" xmlns="http://www.w3.org/2000/svg">
<path d="M5.83813 2.37018L5.83797 2.37047L4.96305 3.96623L4.82071 4.22586H4.52463H3.49117C2.81636 4.22586 2.17741 4.47074 1.71301 4.89425C1.25015 5.31636 1 5.87846 1 6.45366V13.2732C1 13.8484 1.25015 14.4105 1.71301 14.8326C2.17741 15.2561 2.81636 15.501 3.49117 15.501H15.4559C16.1307 15.501 16.7696 15.2561 17.234 14.8326C17.6969 14.4105 17.9471 13.8484 17.9471 13.2732V6.45366C17.9471 5.87846 17.6969 5.31636 17.234 4.89426C16.7696 4.47074 16.1307 4.22586 15.4559 4.22586H14.4224H14.1263L13.984 3.96623L13.1091 2.37047L13.1089 2.37018C12.9698 2.1161 12.7522 1.89594 12.4747 1.73944C12.1971 1.58282 11.8734 1.49806 11.5404 1.49805L5.83813 2.37018ZM5.83813 2.37018C5.97722 2.1161 6.19484 1.89594 6.4723 1.73944M5.83813 2.37018L6.4723 1.73944M6.4723 1.73944C6.74999 1.58282 7.07367 1.49806 7.40662 1.49805M6.4723 1.73944L7.40662 1.49805M7.40662 1.49805C7.40663 1.49805 7.40663 1.49805 7.40664 1.49805M7.40662 1.49805H7.40664M7.40664 1.49805H11.5404H7.40664ZM11.9647 9.18147C11.9647 9.75667 11.7146 10.3188 11.2517 10.7409C10.7873 11.1644 10.1483 11.4093 9.47353 11.4093C8.79871 11.4093 8.15976 11.1644 7.69536 10.7409C7.2325 10.3188 6.98235 9.75667 6.98235 9.18147C6.98235 8.60627 7.2325 8.04417 7.69536 7.62206C8.15976 7.19855 8.79871 6.95366 9.47353 6.95366C10.1483 6.95366 10.7873 7.19855 11.2517 7.62206C11.7146 8.04417 11.9647 8.60627 11.9647 9.18147ZM11.9255 11.4798C12.5846 10.8787 12.9647 10.0532 12.9647 9.18147C12.9647 8.30975 12.5846 7.48419 11.9255 6.88318C11.268 6.28356 10.3853 5.95366 9.47353 5.95366C8.56172 5.95366 7.67904 6.28356 7.02153 6.88318C6.36248 7.48419 5.98235 8.30975 5.98235 9.18147C5.98235 10.0532 6.36248 10.8787 7.02153 11.4798C7.67904 12.0794 8.56172 12.4093 9.47353 12.4093C10.3853 12.4093 11.268 12.0794 11.9255 11.4798Z" stroke="white"/>
</svg>
