<svg width="9" height="15" viewBox="0 0 9 15" fill="none" xmlns="http://www.w3.org/2000/svg">
<path d="M6.75 3.75C6.75 2.36929 5.63071 1.25 4.25 1.25C2.86929 1.25 1.75 2.36929 1.75 3.75V6.875C1.75 8.25571 2.86929 9.375 4.25 9.375C5.63071 9.375 6.75 8.25571 6.75 6.875V3.75Z" stroke="white" stroke-linecap="round" stroke-linejoin="round"/>
<path d="M8 10.1826C7.53128 10.7152 6.95432 11.1417 6.30765 11.4336C5.66098 11.7254 4.95948 11.876 4.25 11.8751C3.54052 11.876 2.83902 11.7254 2.19235 11.4336C1.54568 11.1417 0.968721 10.7152 0.5 10.1826" stroke="white" stroke-linecap="round" stroke-linejoin="round"/>
<path d="M4.25 11.875V13.75" stroke="white" stroke-linecap="round" stroke-linejoin="round"/>
<path d="M3 13.75H5.5" stroke="white" stroke-linecap="round" stroke-linejoin="round"/>
</svg>
