<svg width="25" height="25" viewBox="0 0 25 25" fill="none" xmlns="http://www.w3.org/2000/svg">
<path d="M12.5 10.1797C12.1044 10.1797 11.7178 10.297 11.3889 10.5167C11.06 10.7365 10.8036 11.0489 10.6522 11.4143C10.5009 11.7798 10.4613 12.1819 10.5384 12.5699C10.6156 12.9578 10.8061 13.3142 11.0858 13.5939C11.3655 13.8736 11.7219 14.0641 12.1098 14.1413C12.4978 14.2184 12.8999 14.1788 13.2654 14.0274C13.6308 13.8761 13.9432 13.6197 14.1629 13.2908C14.3827 12.9619 14.5 12.5753 14.5 12.1797C14.5 11.6493 14.2893 11.1405 13.9142 10.7655C13.5391 10.3904 13.0304 10.1797 12.5 10.1797ZM5.5 10.1797C5.10444 10.1797 4.71776 10.297 4.38886 10.5167C4.05996 10.7365 3.80362 11.0489 3.65224 11.4143C3.50087 11.7798 3.46126 12.1819 3.53843 12.5699C3.6156 12.9578 3.80608 13.3142 4.08579 13.5939C4.36549 13.8736 4.72186 14.0641 5.10982 14.1413C5.49778 14.2184 5.89992 14.1788 6.26537 14.0274C6.63082 13.8761 6.94318 13.6197 7.16294 13.2908C7.3827 12.9619 7.5 12.5753 7.5 12.1797C7.5 11.6493 7.28929 11.1405 6.91421 10.7655C6.53914 10.3904 6.03043 10.1797 5.5 10.1797ZM19.5 10.1797C19.1044 10.1797 18.7178 10.297 18.3889 10.5167C18.06 10.7365 17.8036 11.0489 17.6522 11.4143C17.5009 11.7798 17.4613 12.1819 17.5384 12.5699C17.6156 12.9578 17.8061 13.3142 18.0858 13.5939C18.3655 13.8736 18.7219 14.0641 19.1098 14.1413C19.4978 14.2184 19.8999 14.1788 20.2654 14.0274C20.6308 13.8761 20.9432 13.6197 21.1629 13.2908C21.3827 12.9619 21.5 12.5753 21.5 12.1797C21.5 11.6493 21.2893 11.1405 20.9142 10.7655C20.5391 10.3904 20.0304 10.1797 19.5 10.1797Z"/>
</svg>
