<svg width="16" height="15" viewBox="0 0 16 15" fill="none" xmlns="http://www.w3.org/2000/svg">
<path d="M7.99685 0C6.91781 0.00090843 5.85167 0.234443 4.87113 0.684673C3.8906 1.1349 3.01876 1.79124 2.31507 2.6089C1.61138 3.42657 1.0924 4.38632 0.793539 5.42271C0.494676 6.45909 0.422959 7.54772 0.58328 8.61433C0.743601 9.68094 1.13219 10.7004 1.72253 11.6033C2.31288 12.5061 3.09109 13.2711 4.00409 13.8459C4.91709 14.4208 5.94339 14.7921 7.01299 14.9344C8.08259 15.0767 9.17032 14.9868 10.202 14.6707C10.2921 14.6431 10.3741 14.5938 10.4407 14.5271L15.027 9.94255C15.0937 9.87593 15.143 9.794 15.1707 9.70392C15.5145 8.58211 15.5904 7.39536 15.3923 6.23891C15.1942 5.08247 14.7277 3.98855 14.0301 3.04496C13.3326 2.10137 12.4234 1.33438 11.3756 0.805576C10.3278 0.276766 9.17061 0.0008589 7.99685 0ZM14.1069 9.23048L9.72835 13.6075C8.37791 13.9888 6.93906 13.9117 5.63719 13.3881C4.33531 12.8645 3.24396 11.924 2.53408 10.714C1.8242 9.50404 1.5359 8.09285 1.71433 6.70153C1.89276 5.3102 2.52784 4.01734 3.5201 3.02545C4.51236 2.03356 5.80574 1.39868 7.19764 1.22026C8.58954 1.04183 10.0013 1.32995 11.2119 2.03947C12.4224 2.74899 13.3633 3.83983 13.8872 5.14113C14.4111 6.44243 14.4883 7.88066 14.1069 9.23055V9.23048ZM4.53385 6.05769C4.53385 5.88654 4.58462 5.71922 4.67975 5.57691C4.77488 5.4346 4.91009 5.32368 5.06829 5.25818C5.22648 5.19268 5.40056 5.17555 5.5685 5.20894C5.73644 5.24233 5.8907 5.32475 6.01178 5.44577C6.13285 5.5668 6.21531 5.721 6.24871 5.88886C6.28212 6.05673 6.26497 6.23073 6.19945 6.38886C6.13392 6.54699 6.02295 6.68214 5.88058 6.77723C5.73821 6.87232 5.57083 6.92308 5.3996 6.92308C5.16999 6.92308 4.94978 6.8319 4.78742 6.66961C4.62506 6.50732 4.53385 6.28721 4.53385 6.05769ZM9.72835 6.05769C9.72835 5.88654 9.77912 5.71922 9.87425 5.57691C9.96938 5.4346 10.1046 5.32368 10.2628 5.25818C10.421 5.19268 10.5951 5.17555 10.763 5.20894C10.9309 5.24233 11.0852 5.32475 11.2063 5.44577C11.3274 5.5668 11.4098 5.721 11.4432 5.88886C11.4766 6.05673 11.4595 6.23073 11.3939 6.38886C11.3284 6.54699 11.2175 6.68214 11.0751 6.77723C10.9327 6.87232 10.7653 6.92308 10.5941 6.92308C10.3645 6.92308 10.1443 6.8319 9.98192 6.66961C9.81956 6.50732 9.72835 6.28721 9.72835 6.05769ZM11.4963 9.51945C11.1415 10.1333 10.6314 10.6431 10.0171 10.9975C9.40285 11.3519 8.70609 11.5385 7.99685 11.5385C7.2876 11.5385 6.59084 11.3519 5.97658 10.9975C5.36231 10.6431 4.85217 10.1333 4.49741 9.51945C4.42228 9.38708 4.40251 9.23041 4.44241 9.08354C4.48232 8.93668 4.57866 8.81152 4.71045 8.73533C4.84225 8.65914 4.99882 8.63809 5.14607 8.67676C5.29333 8.71543 5.41933 8.8107 5.49663 8.9418C5.75002 9.3805 6.11448 9.74479 6.55336 9.99806C6.99224 10.2513 7.49009 10.3847 7.99687 10.3847C8.50364 10.3847 9.00149 10.2513 9.44036 9.99802C9.87924 9.74473 10.2437 9.38043 10.4971 8.94173C10.5347 8.87549 10.585 8.81734 10.6452 8.77065C10.7054 8.72396 10.7743 8.68964 10.8478 8.66968C10.9213 8.64972 10.9981 8.64451 11.0736 8.65435C11.1492 8.66419 11.222 8.68889 11.288 8.72702C11.354 8.76515 11.4117 8.81596 11.4579 8.87651C11.5041 8.93707 11.5379 9.00617 11.5573 9.07983C11.5766 9.15349 11.5812 9.23026 11.5707 9.3057C11.5603 9.38114 11.535 9.45376 11.4963 9.51938V9.51945Z" fill="white"/>
</svg>
