<svg width="22" height="16" viewBox="0 0 22 16" fill="none" xmlns="http://www.w3.org/2000/svg">
<path d="M20.257 6.962C20.731 7.582 20.731 8.419 20.257 9.038C18.764 10.987 15.182 15 11 15C6.818 15 3.236 10.987 1.743 9.038C1.51238 8.74113 1.3872 8.37592 1.3872 8C1.3872 7.62408 1.51238 7.25887 1.743 6.962C3.236 5.013 6.818 1 11 1C15.182 1 18.764 5.013 20.257 6.962V6.962Z" stroke="white" stroke-width="2" stroke-linecap="round" stroke-linejoin="round"/>
<path d="M11 11C12.6569 11 14 9.65685 14 8C14 6.34315 12.6569 5 11 5C9.34315 5 8 6.34315 8 8C8 9.65685 9.34315 11 11 11Z" stroke="white" stroke-width="2" stroke-linecap="round" stroke-linejoin="round"/>
</svg>
