<svg width="22" height="22" viewBox="0 0 22 22" fill="none" xmlns="http://www.w3.org/2000/svg">
<path d="M11 0.5C10.2044 0.5 9.44129 0.816071 8.87868 1.37868C8.31607 1.94129 8 2.70435 8 3.5V18.5C8 19.2956 8.31607 20.0587 8.87868 20.6213C9.44129 21.1839 10.2044 21.5 11 21.5C11.7956 21.5 12.5587 21.1839 13.1213 20.6213C13.6839 20.0587 14 19.2956 14 18.5V3.5C14 2.70435 13.6839 1.94129 13.1213 1.37868C12.5587 0.816071 11.7956 0.5 11 0.5ZM12.5 3.5V18.5C12.5 18.8978 12.342 19.2794 12.0607 19.5607C11.7794 19.842 11.3978 20 11 20C10.6022 20 10.2206 19.842 9.93934 19.5607C9.65804 19.2794 9.5 18.8978 9.5 18.5V3.5C9.5 3.10218 9.65804 2.72064 9.93934 2.43934C10.2206 2.15804 10.6022 2 11 2C11.3978 2 11.7794 2.15804 12.0607 2.43934C12.342 2.72064 12.5 3.10218 12.5 3.5ZM3.5 9.5C2.70435 9.5 1.94129 9.81607 1.37868 10.3787C0.816071 10.9413 0.5 11.7044 0.5 12.5V18.5C0.5 19.2956 0.816071 20.0587 1.37868 20.6213C1.94129 21.1839 2.70435 21.5 3.5 21.5C4.29565 21.5 5.05871 21.1839 5.62132 20.6213C6.18393 20.0587 6.5 19.2956 6.5 18.5V12.5C6.5 11.7044 6.18393 10.9413 5.62132 10.3787C5.05871 9.81607 4.29565 9.5 3.5 9.5ZM5 18.5C5 18.8978 4.84196 19.2794 4.56066 19.5607C4.27936 19.842 3.89782 20 3.5 20C3.10218 20 2.72064 19.842 2.43934 19.5607C2.15804 19.2794 2 18.8978 2 18.5V12.5C2 12.1022 2.15804 11.7206 2.43934 11.4393C2.72064 11.158 3.10218 11 3.5 11C3.89782 11 4.27936 11.158 4.56066 11.4393C4.84196 11.7206 5 12.1022 5 12.5V18.5ZM15.5 9.5C15.5 8.70435 15.8161 7.94129 16.3787 7.37868C16.9413 6.81607 17.7044 6.5 18.5 6.5C19.2956 6.5 20.0587 6.81607 20.6213 7.37868C21.1839 7.94129 21.5 8.70435 21.5 9.5V18.5C21.5 19.2956 21.1839 20.0587 20.6213 20.6213C20.0587 21.1839 19.2956 21.5 18.5 21.5C17.7044 21.5 16.9413 21.1839 16.3787 20.6213C15.8161 20.0587 15.5 19.2956 15.5 18.5V9.5ZM20 9.5C20 9.10218 19.842 8.72064 19.5607 8.43934C19.2794 8.15804 18.8978 8 18.5 8C18.1022 8 17.7206 8.15804 17.4393 8.43934C17.158 8.72064 17 9.10218 17 9.5V18.5C17 18.8978 17.158 19.2794 17.4393 19.5607C17.7206 19.842 18.1022 20 18.5 20C18.8978 20 19.2794 19.842 19.5607 19.5607C19.842 19.2794 20 18.8978 20 18.5V9.5Z" fill="white"/>
</svg>
