<svg width="18" height="16" viewBox="0 0 18 16" fill="none" xmlns="http://www.w3.org/2000/svg">
<path d="M1.20433 12.4172L1.04187 12.5659V12.7861V13.8577C1.04187 14.2701 1.20099 14.6683 1.48853 14.964C1.77653 15.2602 2.17019 15.4294 2.58374 15.4294H15.0862C15.4997 15.4294 15.8934 15.2602 16.1814 14.964C16.4689 14.6683 16.6281 14.2701 16.6281 13.8577V10.107V9.80615L16.3623 9.66523L12.4271 7.57875L12.4272 7.57872L12.4219 7.57603C12.2291 7.47667 12.0095 7.44173 11.7949 7.47731C11.5804 7.51287 11.3844 7.61659 11.2337 7.77112L11.2333 7.77162L7.66155 11.4454L5.23766 9.78453L5.23754 9.78445C5.04096 9.64983 4.80321 9.58819 4.56497 9.61231C4.33235 9.63585 4.11684 9.73935 3.95241 9.90254L1.20433 12.4172ZM1 3.14132C1 2.70103 1.17018 2.2815 1.46881 1.97434C1.76698 1.66765 2.16833 1.49805 2.58374 1.49805H15.0862C15.5016 1.49805 15.903 1.66765 16.2011 1.97434C16.4998 2.2815 16.6699 2.70103 16.6699 3.14132V13.8577C16.6699 14.298 16.4998 14.7175 16.2011 15.0247C15.903 15.3314 15.5016 15.501 15.0862 15.501H2.58374C2.16833 15.501 1.76698 15.3314 1.46881 15.0247C1.17018 14.7175 1 14.298 1 13.8577V3.14132ZM7.25123 5.82042C7.25123 5.26596 7.03722 4.73148 6.65199 4.33524C6.26629 3.93852 5.74013 3.71296 5.18842 3.71296C4.63671 3.71296 4.11055 3.93852 3.72485 4.33524C3.33962 4.73148 3.12561 5.26596 3.12561 5.82042C3.12561 6.37488 3.33962 6.90937 3.72485 7.30561C4.11055 7.70232 4.63671 7.92788 5.18842 7.92788C5.74013 7.92788 6.26629 7.70232 6.65199 7.30561C7.03722 6.90937 7.25123 6.37488 7.25123 5.82042Z" stroke="white"/>
</svg>
