<svg width="18" height="18" viewBox="0 0 18 18" fill="none" xmlns="http://www.w3.org/2000/svg">
<path d="M10.5 9C10.5 8.70333 10.412 8.41332 10.2472 8.16665C10.0824 7.91997 9.84811 7.72771 9.57402 7.61418C9.29994 7.50065 8.99834 7.47094 8.70736 7.52882C8.41639 7.5867 8.14912 7.72956 7.93934 7.93934C7.72956 8.14912 7.5867 8.41639 7.52882 8.70736C7.47094 8.99834 7.50065 9.29994 7.61418 9.57403C7.72771 9.84811 7.91997 10.0824 8.16664 10.2472C8.41332 10.412 8.70333 10.5 9 10.5C9.39782 10.5 9.77935 10.342 10.0607 10.0607C10.342 9.77936 10.5 9.39783 10.5 9ZM10.5 3.75C10.5 3.45333 10.412 3.16332 10.2472 2.91665C10.0824 2.66997 9.84811 2.47771 9.57402 2.36418C9.29994 2.25065 8.99834 2.22094 8.70736 2.27882C8.41639 2.3367 8.14912 2.47956 7.93934 2.68934C7.72956 2.89912 7.5867 3.16639 7.52882 3.45737C7.47094 3.74834 7.50065 4.04994 7.61418 4.32403C7.72771 4.59812 7.91997 4.83238 8.16664 4.9972C8.41332 5.16203 8.70333 5.25 9 5.25C9.39782 5.25 9.77936 5.09197 10.0607 4.81066C10.342 4.52936 10.5 4.14783 10.5 3.75ZM10.5 14.25C10.5 13.9533 10.412 13.6633 10.2472 13.4166C10.0824 13.17 9.84811 12.9777 9.57402 12.8642C9.29994 12.7506 8.99834 12.7209 8.70736 12.7788C8.41639 12.8367 8.14912 12.9796 7.93934 13.1893C7.72956 13.3991 7.5867 13.6664 7.52882 13.9574C7.47094 14.2483 7.50065 14.5499 7.61418 14.824C7.72771 15.0981 7.91997 15.3324 8.16664 15.4972C8.41332 15.662 8.70333 15.75 9 15.75C9.39782 15.75 9.77935 15.592 10.0607 15.3107C10.342 15.0294 10.5 14.6478 10.5 14.25Z" fill="url(#paint0_linear_5065_17300)"/>
<defs>
<linearGradient id="paint0_linear_5065_17300" x1="10.5" y1="9" x2="7.5" y2="9" gradientUnits="userSpaceOnUse">
<stop stop-color="#44F556"/>
<stop offset="1" stop-color="#5BF9E6"/>
</linearGradient>
</defs>
</svg>
