<svg width="19" height="17" viewBox="0 0 19 17" fill="none" xmlns="http://www.w3.org/2000/svg">
<path d="M15.2821 1.49893H15.2821C15.5931 1.49893 15.9011 1.56018 16.1884 1.6792C16.4757 1.79821 16.7368 1.97265 16.9567 2.19255C17.1766 2.41246 17.351 2.67352 17.47 2.96084C17.589 3.24816 17.6503 3.55611 17.6503 3.8671V13.1362C17.6503 13.4471 17.589 13.7551 17.47 14.0424C17.351 14.3297 17.1766 14.5908 16.9567 14.8107C16.7368 15.0306 16.4757 15.205 16.1884 15.3241C15.9011 15.4431 15.5931 15.5043 15.2821 15.5043H3.36817C2.74009 15.5043 2.13774 15.2548 1.69362 14.8107C1.2495 14.3666 1 13.7642 1 13.1362V3.86622C1 3.23814 1.2495 2.63579 1.69362 2.19167C2.13773 1.74756 2.74007 1.49806 3.36814 1.49805C3.36815 1.49805 3.36816 1.49805 3.36817 1.49805L15.2821 1.49893ZM8.11521 10.4125L8.11919 10.4048L8.1229 10.397L8.19085 10.2541L8.20442 10.2255L8.21428 10.1955L8.23458 10.1337L8.24098 10.1142L8.24576 10.0943L8.26164 10.0281L8.26979 9.99418L8.27315 9.95941L8.2802 9.88616L8.28251 9.86224V9.8382V8.49677V8.47798L8.2811 8.45925L8.27492 8.37717L8.27354 8.35882L8.27081 8.34062C8.23788 8.12076 8.13611 7.917 7.98012 7.75859C7.82414 7.60019 7.62196 7.4953 7.40264 7.45898L7.38146 7.45547L7.36005 7.45379L7.34381 7.45252C7.5555 7.34934 7.7275 7.17746 7.83056 6.96336C7.94967 6.71591 7.96725 6.43168 7.87955 6.17144C7.79185 5.9112 7.60582 5.69559 7.36123 5.57071L7.3613 5.57058L7.35035 5.56532C6.84425 5.32222 6.39518 5.23892 5.80833 5.23892C4.02631 5.23892 2.87788 6.78278 2.87788 8.49501C2.87788 10.2067 4.02674 11.7537 5.80833 11.7537C6.74955 11.7537 7.65689 11.2966 8.11521 10.4125ZM5.80833 7.34206C6.10501 7.34206 6.24092 7.37046 6.40624 7.4452H6.34666H6.33037L6.31412 7.44626L6.23292 7.45156L6.21177 7.45294L6.19081 7.4561C5.97122 7.48926 5.76775 7.59104 5.60951 7.74686C5.45127 7.90268 5.34638 8.10456 5.30984 8.32362L5.30663 8.34289L5.30493 8.36235L5.29699 8.45325L5.29343 8.49396L5.29653 8.53471L5.30271 8.6159L5.30408 8.63391L5.30674 8.65177C5.3742 9.10376 5.72706 9.4596 6.17504 9.5337L6.17581 9.53383C6.10127 9.5991 5.98236 9.64972 5.80833 9.64972C5.41788 9.64972 4.98102 9.27836 4.98102 8.49501C4.98102 7.71287 5.41673 7.34206 5.80833 7.34206ZM8.8403 6.24336L8.83766 6.26112L8.8363 6.27903L8.83012 6.36022L8.82868 6.37916V6.39815V10.6016V10.6206L8.83012 10.6395L8.8363 10.7207L8.8377 10.7391L8.84045 10.7574C8.87802 11.0063 9.00361 11.2334 9.1944 11.3976C9.3852 11.5617 9.62855 11.652 9.88025 11.652C10.1319 11.652 10.3753 11.5617 10.5661 11.3976C10.7569 11.2334 10.8825 11.0063 10.92 10.7574L10.9228 10.7391L10.9242 10.7207L10.9304 10.6395L10.9318 10.6206V10.6016V6.39815V6.37916L10.9304 6.36022L10.9242 6.27903L10.9228 6.26112L10.9202 6.24336C10.8831 5.99409 10.7577 5.76643 10.5669 5.60184C10.376 5.43724 10.1324 5.34666 9.8804 5.34658H9.88009C9.62808 5.34666 9.38447 5.43724 9.19363 5.60184C9.00278 5.76643 8.8774 5.99409 8.8403 6.24336ZM14.3242 5.35417L14.3063 5.35283L14.2884 5.35276L12.5261 5.34659C12.5261 5.34659 12.526 5.34659 12.526 5.34659C12.2742 5.34569 12.0304 5.43519 11.839 5.59883C11.6475 5.76248 11.5212 5.9894 11.4829 6.23832L11.48 6.25747L11.4785 6.27678L11.4723 6.35886L11.4709 6.3776V6.39639V10.5866V10.6027L11.472 10.6188L11.4773 10.7008L11.4786 10.7217L11.4817 10.7425C11.5492 11.1944 11.902 11.5503 12.35 11.6244L12.3713 11.6279L12.3929 11.6296L12.4838 11.6366L12.5194 11.6394L12.555 11.6371L12.6362 11.6318L12.657 11.6304L12.6775 11.6274C13.1295 11.5599 13.4853 11.2071 13.5594 10.7591L13.5626 10.7401L13.5642 10.721L13.5722 10.6301L13.5741 10.6081L13.5741 10.5861L13.5736 10.1026H14.0643H14.0805L14.0968 10.1015L14.178 10.0962L14.1987 10.0949L14.2192 10.0918C14.6715 10.0243 15.0263 9.67155 15.1018 9.22529L15.1055 9.20327L15.1072 9.18099L15.1143 9.09098L15.1173 9.05246L15.1144 9.01394L15.1082 8.93275L15.1069 8.91502L15.1042 8.89742C15.0716 8.67725 14.97 8.47312 14.814 8.31439C14.658 8.15566 14.4556 8.05052 14.2361 8.0141L14.2148 8.01058L14.1934 8.00889L14.1033 8.00183L14.0838 8.0003H14.0643H13.5732V7.4528L14.28 7.4559L14.2973 7.45597L14.3144 7.45487L14.3965 7.44957L14.4154 7.44835L14.4342 7.4457C14.6844 7.41037 14.9135 7.28613 15.0797 7.0957C15.2458 6.90527 15.3377 6.66139 15.3388 6.4087C15.3398 6.15601 15.2498 5.9114 15.0852 5.71963C14.9207 5.52787 14.6925 5.40177 14.4426 5.36443L14.4245 5.36172L14.4062 5.36035L14.3242 5.35417Z" stroke="white"/>
</svg>
