<svg width="24" height="25" viewBox="0 0 24 25" fill="none" xmlns="http://www.w3.org/2000/svg">
<path d="M8.46002 11.4692L14.12 5.81924C14.213 5.72551 14.3236 5.65111 14.4454 5.60034C14.5673 5.54958 14.698 5.52344 14.83 5.52344C14.962 5.52344 15.0927 5.54958 15.2146 5.60034C15.3365 5.65111 15.4471 5.72551 15.54 5.81924C15.7263 6.0066 15.8308 6.26005 15.8308 6.52424C15.8308 6.78842 15.7263 7.04187 15.54 7.22924L10.59 12.2292L15.54 17.1792C15.7263 17.3666 15.8308 17.62 15.8308 17.8842C15.8308 18.1484 15.7263 18.4019 15.54 18.5892C15.4474 18.6837 15.337 18.7589 15.2151 18.8104C15.0932 18.8619 14.9623 18.8887 14.83 18.8892C14.6977 18.8887 14.5668 18.8619 14.445 18.8104C14.3231 18.7589 14.2126 18.6837 14.12 18.5892L8.46002 12.9392C8.35851 12.8456 8.2775 12.7319 8.2221 12.6054C8.16669 12.4789 8.13809 12.3423 8.13809 12.2042C8.13809 12.0661 8.16669 11.9295 8.2221 11.803C8.2775 11.6765 8.35851 11.5629 8.46002 11.4692Z"/>
</svg>
