<svg width="16" height="20" viewBox="0 0 16 20" fill="none" xmlns="http://www.w3.org/2000/svg">
<path d="M3.29299 0.465884L4.45446 0.116548C5.09072 -0.0753143 5.77505 -0.0291279 6.37976 0.246489C6.98447 0.522106 7.46824 1.00832 7.74081 1.61441L8.63853 3.6109C8.87288 4.13222 8.93814 4.71383 8.82515 5.27412C8.71216 5.83441 8.4266 6.34527 8.00853 6.73502L6.52161 8.12142C6.47815 8.16192 6.45061 8.21665 6.44398 8.27569C6.40019 8.6708 6.66792 9.44014 7.28498 10.51C7.73384 11.2873 8.1409 11.8337 8.48626 12.1393C8.72711 12.3533 8.85948 12.399 8.91621 12.3831L10.9167 11.771C11.463 11.6039 12.0479 11.612 12.5894 11.794C13.1309 11.9761 13.6019 12.323 13.9363 12.7862L15.2112 14.5538C15.5989 15.0913 15.7784 15.7513 15.7164 16.4111C15.6543 17.071 15.3549 17.6859 14.8738 18.1417L13.992 18.9777C13.524 19.4209 12.9492 19.7353 12.3236 19.8904C11.698 20.0455 11.0428 20.0358 10.422 19.8625C7.68109 19.0971 5.22379 16.7842 3.02228 12.9713C0.81778 9.1535 0.0444629 5.86517 0.757069 3.10531C0.91748 2.4846 1.23508 1.91568 1.67925 1.45338C2.12342 0.991078 2.67919 0.650986 3.29299 0.465884ZM3.72394 1.89607C3.35576 2.007 3.02236 2.21086 2.75583 2.48802C2.4893 2.76518 2.29863 3.10631 2.20219 3.47854C1.60304 5.79948 2.28877 8.71459 4.31512 12.2249C6.33848 15.7302 8.51711 17.7804 10.8241 18.4253C11.1965 18.5291 11.5893 18.5346 11.9645 18.4415C12.3396 18.3483 12.6843 18.1597 12.9649 17.8939L13.8477 17.0579C14.0665 16.8506 14.2026 16.571 14.2308 16.271C14.259 15.971 14.1773 15.671 14.001 15.4266L12.7271 13.66C12.575 13.4493 12.3608 13.2914 12.1145 13.2085C11.8682 13.1257 11.6021 13.1221 11.3536 13.1982L9.34815 13.8123C8.1837 14.1587 7.12673 13.2221 5.99213 11.2565C5.22777 9.93279 4.87147 8.90768 4.96005 8.11047C5.00683 7.69644 5.19891 7.31426 5.50346 7.02962L6.99038 5.64322C7.1805 5.46608 7.31037 5.23386 7.36178 4.97914C7.41319 4.72442 7.38355 4.46 7.27701 4.22299L6.37929 2.2265C6.2554 1.95122 6.03564 1.73037 5.76098 1.60513C5.48631 1.47988 5.17548 1.45877 4.8864 1.54574L3.72394 1.89607Z"/>
</svg>
